<?xml version="1.0" encoding="UTF-8" standalone="no"?><!DOCTYPE svg PUBLIC "-//W3C//DTD SVG 1.1//EN" "http://www.w3.org/Graphics/SVG/1.1/DTD/svg11.dtd"><svg width="100%" height="100%" viewBox="0 0 148 73" version="1.1" xmlns="http://www.w3.org/2000/svg" xmlns:xlink="http://www.w3.org/1999/xlink" xml:space="preserve" xmlns:serif="http://www.serif.com/" style="fill-rule:evenodd;clip-rule:evenodd;stroke-linejoin:round;stroke-miterlimit:2;"><rect id="Logo-Q" serif:id="Logo Q" x="-0" y="0" width="147.792" height="72.167" style="fill:none;"/><path d="M66.028,39.58l-1.797,7.109c-0.608,2.404 -0.402,3.438 0.966,3.438c0.935,-0 2.529,-0.1 2.529,-0.1l-0.583,2.971c-0,-0 -2.113,0.434 -3.282,0.434c-3.538,-0 -4.526,-1.769 -3.396,-6.242l1.924,-7.61l-2.002,-0l0.801,-3.171l2.003,-0l1.24,-4.907l3.639,-0l-1.241,4.907l4.407,-0l-0.802,3.171l-4.406,-0Zm37.005,-0l-1.797,7.109c-0.608,2.404 -0.402,3.438 0.966,3.438c0.935,-0 2.529,-0.1 2.529,-0.1l-0.583,2.971c-0,-0 -2.113,0.434 -3.282,0.434c-3.538,-0 -4.526,-1.769 -3.396,-6.242l1.924,-7.61l-2.002,-0l0.801,-3.171l2.003,-0l1.24,-4.907l3.639,-0l-1.241,4.907l4.407,-0l-0.802,3.171l-4.406,-0Zm-11.026,9.045c-0.195,1.168 0.196,1.468 1.139,1.702l-1.01,3.071c-2.303,0 -3.295,-0.434 -4.102,-1.202c0,0 -2.707,1.202 -5.311,1.202c-2.871,0 -4.518,-2.07 -3.699,-5.307c0.86,-3.405 3.318,-4.807 6.689,-5.074l4.124,-0.334l0.288,-1.135c0.371,-1.468 -0.145,-2.203 -1.479,-2.203c-2.972,0 -6.528,0.334 -6.528,0.334l0.625,-3.004c0,0 4.442,-0.668 6.946,-0.668c3.538,0 5.12,1.536 4.09,5.609l-1.772,7.009Zm52.873,1.269l-0.626,2.737c0,-0 -3.364,0.767 -6.535,0.767c-5.141,-0 -6.284,-3.004 -4.884,-8.545c1.426,-5.64 4.673,-8.845 9.28,-8.845c4.639,-0 6.184,2.737 4.953,7.61l-0.892,2.604l-10.015,-0c-0.549,2.303 -0.036,3.972 2.635,3.972c2.403,-0 6.084,-0.3 6.084,-0.3Zm-116.062,-19.962l3.772,0l-5.839,23.099l-3.772,0l5.839,-23.099Zm25.063,6.442l3.638,0l-4.21,16.657l-3.638,0l4.21,-16.657Zm20.801,0l3.638,0l-4.21,16.657l-3.638,0l4.21,-16.657Zm37.005,0l3.638,0l-4.21,16.657l-3.638,0l4.21,-16.657Zm-80.102,16.657l4.21,-16.656l3.639,-0l-0.219,0.868c0,-0 2.783,-1.235 4.652,-1.235c4.406,-0 4.923,2.971 3.573,8.311l-2.201,8.712l-3.673,-0l2.194,-8.678c0.759,-3.004 0.873,-5.041 -1.43,-5.041c-1.569,-0 -3.857,0.868 -3.857,0.868l-3.249,12.851l-3.639,-0Zm90.615,-16.657l-0.212,13.652l0.767,0l6.756,-13.652l3.705,0l-8.483,16.656l-6.276,0l-0.029,-16.656l3.772,0Zm-36.711,9.247c-1.493,0.1 -2.431,1.034 -2.769,2.369c-0.354,1.402 0.144,2.337 1.313,2.337c1.836,0 4.049,-0.701 4.049,-0.701l1.072,-4.239l-3.665,0.234Zm58.015,-2.169c0.743,-2.938 0.204,-4.373 -2.166,-4.373c-2.336,-0 -3.759,1.535 -4.477,4.373l6.643,-0Zm-87.986,-13.553l3.638,0l-0.971,3.839l-3.638,0l0.971,-3.839Zm20.801,0l3.638,0l-0.971,3.839l-3.638,0l0.971,-3.839Zm37.005,0l3.638,0l-0.971,3.839l-3.638,0l0.971,-3.839Z" style="fill:#e61768;fill-rule:nonzero;"/><path d="M11.504,13.135l0,-0c-3.002,-0 -5.436,2.434 -5.436,5.436l0,24.399l0.014,-0l0,17.144c0,4.465 3.62,8.085 8.085,8.085l7.307,-0c0.286,0.95 0.86,1.841 1.779,2.524c1.446,1.076 3.436,1.257 5.043,0.441c3.188,-1.619 3.665,-5.897 0.884,-8.177c-1.392,-1.141 -3.371,-1.397 -5.009,-0.654c-1.319,0.598 -2.192,1.636 -2.614,2.813l-7.389,-0c-2.779,-0 -5.032,-2.253 -5.032,-5.032l0,-17.144l0.009,-0l0,-24.399c0,-1.303 1.056,-2.359 2.359,-2.359l0,-0l13.07,-0l0,0.003l0.003,-0l0,8.492l3.213,-0l0,-8.492l5.059,-0l3.471,8.492l3.503,-0l-3.785,-9.263c2.281,-1.197 3.664,-3.62 3.664,-6.688c0,-4.367 -2.892,-7.3 -7.195,-7.3l-7.933,-0l0,11.679l-13.07,-0Zm37.585,-4.562c-4.372,-0 -6.684,3.041 -6.684,8.394c-0,5.259 1.806,8.11 6.684,8.11c3.009,-0 6.019,-0.729 6.019,-0.729l-0.064,-2.597c-0,-0 -3.421,0.285 -5.702,0.285c-2.534,-0 -3.42,-1.584 -3.452,-3.769l9.503,-0l0.221,-2.471c-0,-4.625 -2.122,-7.223 -6.525,-7.223Zm31.493,-0c-4.372,-0 -6.684,3.041 -6.684,8.394c0,5.259 1.805,8.11 6.684,8.11c3.009,-0 6.018,-0.729 6.018,-0.729l-0.064,-2.597c0,-0 -3.42,0.285 -5.701,0.285c-2.535,-0 -3.421,-1.584 -3.453,-3.769l9.503,-0l0.222,-2.471c0,-4.625 -2.123,-7.223 -6.525,-7.223Zm35.677,0.349l0,12.227c0,-0 -1.963,0.887 -3.357,0.887c-2.123,-0 -2.567,-1.457 -2.567,-4.878l0,-8.236l-3.484,-0l0,8.268c0,5.511 1.299,7.887 5.385,7.887c1.679,-0 4.023,-1.172 4.023,-1.172l0,0.824l3.484,-0l0,-15.807l-3.484,-0Zm-50.697,6.272c-2.567,-0.443 -3.2,-0.792 -3.2,-1.774c0,-1.267 0.919,-1.837 2.566,-1.837c1.679,-0 5.512,0.507 5.512,0.507l0.063,-2.819c0,-0 -3.485,-0.697 -5.829,-0.697c-2.882,-0 -5.797,1.362 -5.797,4.91c0,3.231 2.092,4.086 5.639,4.783c2.502,0.507 3.009,0.791 3.009,1.869c0,1.362 -0.854,1.932 -3.009,1.932c-1.616,-0 -5.353,-0.538 -5.353,-0.538l-0.127,2.85c0,-0 3.612,0.697 5.829,0.697c3.61,-0 6.144,-1.331 6.144,-5.036c0,-3.136 -1.487,-4.15 -5.447,-4.847Zm36.66,5.352l-0,-6.652c-0,-3.864 -1.869,-5.321 -5.227,-5.321c-2.376,0 -6.431,0.633 -6.431,0.633l0.127,2.851c-0,0 3.295,-0.317 6.114,-0.317c1.267,0 1.932,0.697 1.932,2.091l-0,1.077l-3.833,0.317c-3.135,0.254 -5.131,1.584 -5.131,4.815c-0,3.072 2.059,5.036 4.784,5.036c2.47,0 4.751,-1.14 4.751,-1.14c0.95,0.729 1.996,1.14 4.181,1.14l0.222,-2.914c-0.951,-0.222 -1.394,-0.506 -1.489,-1.616Zm-3.485,0.951c-0,0 -1.932,0.665 -3.674,0.665c-1.109,0 -1.805,-0.887 -1.805,-2.217c-0,-1.267 0.665,-2.154 2.058,-2.249l3.421,-0.222l-0,4.023Zm-52.847,-5.86c-0,-2.692 0.982,-4.149 3.199,-4.149c2.249,-0 3.104,1.362 3.104,4.149l-6.303,-0Zm31.492,-0c0,-2.692 0.982,-4.149 3.2,-4.149c2.248,-0 3.103,1.362 3.103,4.149l-6.303,-0Zm-44.109,-2.502l-5.483,-0l0,-8.599l4.717,-0c2.532,-0 3.907,1.547 3.907,4.22c0,2.271 -0.903,4.072 -3.141,4.379Zm20.377,-9.376l-1.172,-3.263l-7.635,2.946l1.078,2.914l7.729,-2.597Z" style="fill:#79b82c;fill-rule:nonzero;"/><path d="M11.881,50.297c-3.178,2.511 -7.79,1.97 -10.301,-1.208c-2.511,-3.178 -1.97,-7.79 1.208,-10.301c3.178,-2.511 7.79,-1.97 10.301,1.208c2.511,3.178 1.97,7.79 -1.208,10.301" style="fill:#e61768;fill-rule:nonzero;"/><path d="M93.393,70.327c-0,-0 -1.298,0.22 -2.079,0.22c-2.222,-0 -2.783,-1.354 -2.783,-3.917c-0,-2.717 0.693,-3.949 2.783,-3.949c0.88,-0 2.091,0.252 2.091,0.252l-0.044,1.089c-0,-0 -1.299,-0.153 -1.882,-0.153c-1.309,-0 -1.672,0.748 -1.672,2.761c-0,1.926 0.308,2.74 1.705,2.74c0.517,-0 1.849,-0.144 1.849,-0.144l0.032,1.101Zm26.204,-3.664c0,-2.563 0.792,-3.982 3.004,-3.982c2.221,-0 3.014,1.408 3.014,3.982c0,2.607 -0.793,3.884 -3.014,3.884c-2.223,-0 -3.004,-1.298 -3.004,-3.884Zm-77.688,-0c0,-2.563 0.792,-3.982 3.004,-3.982c2.222,-0 3.014,1.408 3.014,3.982c0,2.607 -0.792,3.884 -3.014,3.884c-2.223,-0 -3.004,-1.298 -3.004,-3.884Zm10.1,2.684c1.012,0 1.507,-0.374 1.507,-1.354l-0,-5.181l1.232,0l-0,5.181c-0,1.783 -0.836,2.531 -2.739,2.531c-1.871,0 -2.707,-0.748 -2.707,-2.531l-0,-5.181l1.232,0l-0,5.181c-0,0.98 0.485,1.354 1.475,1.354Zm43.991,-6.535l2.344,-0l1.826,7.614l-1.232,-0l-0.452,-1.573l-2.706,-0l-0.396,1.573l-1.232,-0l1.848,-7.614Zm10.857,0.001l4.632,-0l0,1.133l-3.41,-0l0,2.134l2.75,-0l0,1.111l-2.75,-0l0,2.09l3.41,-0l0,1.145l-4.632,-0l0,-7.613Zm-37.588,7.613l-0,-7.613l1.221,-0l-0,6.458l2.883,-0l-0,1.155l-4.104,-0Zm5.456,-0l0,-7.613l1.222,-0l0,6.458l2.882,-0l0,1.155l-4.104,-0Zm26.677,-0l-0,-7.613l1.222,-0l-0,6.458l2.882,-0l-0,1.155l-4.104,-0Zm-66.797,-7.614l2.102,0l2.343,6.337l0.165,0l-0,-6.337l1.232,0l-0,7.613l-2.047,0l-2.398,-6.337l-0.154,0l-0,6.337l-1.243,0l-0,-7.613Zm45.576,0l4.631,0l0,1.134l-3.409,0l0,2.134l2.749,0l0,1.111l-2.749,0l0,2.09l3.409,0l0,1.144l-4.631,0l0,-7.613Zm57.479,0l4.632,0l0,1.134l-3.41,0l0,2.134l2.75,0l0,1.111l-2.75,0l0,2.09l3.41,0l0,1.144l-4.632,0l0,-7.613Zm-74.53,0l4.632,0l0,1.134l-3.411,0l0,2.134l2.751,0l0,1.111l-2.751,0l0,2.09l3.411,0l0,1.144l-4.632,0l0,-7.613Zm63.947,0l2.102,0l2.342,6.337l0.165,0l0,-6.337l1.233,0l0,7.613l-2.046,0l-2.399,-6.337l-0.154,0l0,6.337l-1.243,0l0,-7.613Zm-65.168,0l-1.848,7.613l-2.333,0l-1.837,-7.613l1.288,0l1.496,6.502l0.44,0l1.496,-6.502l1.298,0Zm51.087,7.613l-0,-7.613l2.52,0c2.354,0 2.992,1.331 2.992,3.675c-0,2.388 -0.572,3.938 -2.992,3.938l-2.52,0Zm22.915,-7.613l-1.243,-0l-0,7.613l1.243,-0l-0,-7.613Zm-11.572,3.851c0,-1.903 -0.43,-2.838 -1.738,-2.838c-1.31,-0 -1.728,0.924 -1.728,2.838c0,1.926 0.418,2.751 1.728,2.751c1.32,-0 1.738,-0.804 1.738,-2.751Zm-77.688,-0c0,-1.903 -0.429,-2.838 -1.738,-2.838c-1.31,-0 -1.728,0.924 -1.728,2.838c0,1.926 0.418,2.751 1.728,2.751c1.32,-0 1.738,-0.804 1.738,-2.751Zm68.865,-2.717l-1.298,0l-0,5.335l1.298,0c1.441,0 1.716,-1.243 1.716,-2.794c-0,-1.54 -0.275,-2.541 -1.716,-2.541Zm-19.472,3.762l2.212,-0l-0.892,-3.817l-0.407,-0l-0.913,3.817Zm14.411,-7.789l0.407,1.134l-2.684,0.901l-0.374,-1.012l2.651,-1.023Z" style="fill:#e61768;fill-rule:nonzero;"/></svg>